<svg width="19" height="24" viewBox="0 0 19 24" fill="none" xmlns="http://www.w3.org/2000/svg">
<path fill-rule="evenodd" clip-rule="evenodd" d="M5.21277 3.52206C2.75852 5.05538 0.750264 6.32971 0.75 6.35391C0.749736 6.37811 1.49158 6.86229 2.39851 7.4299L4.04755 8.46188L4.14682 9.1899C4.33373 10.5609 4.80242 11.5299 5.72678 12.4568C6.76413 13.497 7.90919 13.9983 9.42297 14.075C12.5069 14.2311 15.0028 12.1026 15.3156 9.04981L15.374 8.48009L17.0324 7.43905C17.9445 6.86643 18.6901 6.37811 18.6894 6.35391C18.688 6.31123 9.85118 0.781814 9.73361 0.750045C9.70141 0.741333 7.66701 1.98874 5.21277 3.52206ZM6.07068 16.1293C4.74628 16.7023 3.3153 17.8654 2.45994 19.0642C1.89735 19.8526 1.29965 21.1613 1.04656 22.1589C0.928025 22.6262 0.831048 23.0629 0.831048 23.1293C0.831048 23.2308 2.25322 23.25 9.76309 23.25C18.4601 23.25 18.6951 23.2456 18.6951 23.0839C18.6951 22.7139 18.2221 21.305 17.8192 20.4749C16.8677 18.5148 15.3008 16.9758 13.4151 16.1494C13.0521 15.9903 12.6957 15.8607 12.6231 15.8614C12.5401 15.8623 11.9843 16.8259 11.1271 18.455C10.3769 19.8807 9.74329 21.0473 9.7191 21.0473C9.69489 21.0473 9.06129 19.8807 8.31109 18.455C7.44543 16.8098 6.89886 15.8631 6.81508 15.8635C6.74248 15.8639 6.40746 15.9835 6.07068 16.1293Z" fill="#34D3B3"/>
</svg>
