<svg width="22" height="24" viewBox="0 0 22 24" fill="none" xmlns="http://www.w3.org/2000/svg">
<path fill-rule="evenodd" clip-rule="evenodd" d="M2.42634 0.169238C2.16173 0.26065 1.79372 0.45647 1.60853 0.604493C1.19417 0.935615 0.717391 1.6243 0.593357 2.071C0.533657 2.28582 0.500308 5.06336 0.500036 9.85027C0.49949 17.1613 0.502853 17.3024 0.685042 17.6788C0.90585 18.1349 1.58972 18.7976 2.14492 19.0933C2.51575 19.2909 2.67595 19.3091 4.4068 19.3517L6.26958 19.3974L6.29421 21.1415L6.31892 22.8857L6.55636 23.0724C7.00806 23.4278 7.22687 23.3368 8.326 22.337C8.75744 21.9446 9.14136 21.6236 9.17925 21.6236C9.21705 21.6236 9.51292 21.8587 9.83659 22.1461C11.2321 23.3851 11.4023 23.4561 11.8649 22.9936L12.1305 22.728V21.04V19.3519H14.7C16.9285 19.3519 17.2976 19.3323 17.4811 19.2037C17.9273 18.8911 17.9461 18.7146 17.9461 14.8115C17.9461 12.8107 17.9117 11.1738 17.8697 11.1738C17.8278 11.1738 17.4699 11.257 17.0746 11.3586C15.649 11.7251 14.0548 11.6877 12.5394 11.2523C12.1896 11.1518 11.4368 10.8395 10.8664 10.5582C9.59869 9.93305 8.98988 9.38339 8.56907 8.48416C8.32119 7.95432 8.2773 7.74668 8.24095 6.92887L8.19897 5.98522L7.76826 5.76695C6.14745 4.9456 5.81606 2.73943 7.12301 1.4711C7.38398 1.21785 7.84386 0.960058 8.69792 0.5885C9.36144 0.299814 9.92137 0.0486564 9.94217 0.030392C9.96298 0.0121276 8.3887 -0.0015025 6.44377 0.000133115C3.2585 0.00276827 2.85968 0.0195788 2.42634 0.169238ZM11.7216 1.36296C9.71028 2.25056 8.56081 2.80676 8.42768 2.95696C8.16762 3.25047 8.16762 3.56205 8.42768 3.84101C8.73391 4.1695 14.8921 6.84173 15.1542 6.75986C15.7455 6.57504 21.3843 4.03811 21.558 3.87863C21.6933 3.7546 21.7625 3.58631 21.7625 3.38195C21.7625 3.17532 21.6947 3.01321 21.558 2.89281C21.3008 2.66628 15.4527 0.0861847 15.0837 0.0363893C14.8798 0.00894727 14.0325 0.343249 11.7216 1.36296ZM10.1542 6.88689C10.2498 7.94059 10.7325 8.43928 12.281 9.08398C13.3166 9.51506 13.9912 9.65854 14.9929 9.66072C16.1064 9.66317 16.8654 9.48207 18.0316 8.93569C19.1055 8.43255 19.4653 8.15986 19.6805 7.68598C19.84 7.33451 19.9252 6.35786 19.7962 6.35786C19.7643 6.35786 18.7932 6.77376 17.6381 7.28199C14.8567 8.50597 15.1363 8.50615 12.3669 7.27944C11.2225 6.77258 10.2457 6.35786 10.1962 6.35786C10.1416 6.35786 10.1251 6.56595 10.1542 6.88689ZM6.31501 16.4952V17.455L4.64105 17.4266C3.01589 17.3991 2.96027 17.3919 2.7342 17.1793C2.27904 16.7512 2.36773 15.897 2.89376 15.6423C3.00507 15.5886 3.7839 15.5451 4.70212 15.5417L6.31501 15.5355V16.4952ZM15.947 16.4896V17.4437H14.0388H12.1305V16.4896V15.5355H14.0388H15.947V16.4896Z" fill="#34D3B3"/>
</svg>
