<svg width="22" height="22" viewBox="0 0 22 22" fill="none" xmlns="http://www.w3.org/2000/svg">
<path fill-rule="evenodd" clip-rule="evenodd" d="M7.31016 0.100562C4.92603 0.882927 3.56976 3.24531 4.22024 5.48294C4.56375 6.66429 5.29346 7.63652 6.26601 8.2081C6.97031 8.6222 7.22462 8.67602 8.47391 8.67602C9.7232 8.67602 9.97752 8.6222 10.6818 8.2081C11.6544 7.63652 12.3841 6.66429 12.7276 5.48294C13.2914 3.54347 12.3043 1.4055 10.389 0.417495C9.67304 0.0482381 7.99586 -0.124347 7.31016 0.100562ZM3.39983 10.8065C2.05403 11.3251 1.14625 12.249 0.695107 13.5594C0.43216 14.3232 0.436146 18.0961 0.700091 18.3601C0.844604 18.5046 2.05087 18.5594 5.08399 18.5594H9.26857L9.32853 16.6907C9.38252 15.0125 9.43484 14.7431 9.8433 14.0474C10.3091 13.2541 11.0276 12.6937 11.8376 12.4915C12.0889 12.4287 12.2944 12.2904 12.2944 12.184C12.2944 12.0777 12.516 11.7219 12.7869 11.3934C13.0576 11.0648 13.2321 10.7487 13.1744 10.6911C12.9759 10.4926 3.93769 10.5992 3.39983 10.8065ZM14.2749 12.4006C13.9192 12.7563 13.7893 13.0451 13.7893 13.4803C13.7893 14.0436 13.7604 14.0745 13.2327 14.0745C12.6317 14.0745 11.628 14.3713 11.6331 14.5476C11.6348 14.6072 12.7206 15.2165 14.0461 15.9017L16.456 17.1475L18.8573 15.9017C20.178 15.2165 21.2599 14.6072 21.2614 14.5476C21.266 14.3712 20.2622 14.0745 19.6614 14.0745C19.1337 14.0745 19.1048 14.0436 19.1048 13.4803C19.1048 13.0451 18.9749 12.7563 18.6192 12.4006C18.1463 11.9277 18.0897 11.9151 16.4471 11.9151C14.8044 11.9151 14.7478 11.9277 14.2749 12.4006ZM17.7759 13.6592C17.7759 14.0675 17.7538 14.0745 16.4471 14.0745C15.1403 14.0745 15.1182 14.0675 15.1182 13.6592C15.1182 13.2509 15.1403 13.244 16.4471 13.244C17.7538 13.244 17.7759 13.2509 17.7759 13.6592ZM11.1316 18.0611V20.2461L11.6172 20.7316L12.1027 21.2171H16.4471H20.7914L21.277 20.7316L21.7625 20.2461V18.0614V15.8769L19.1094 17.2591L16.4562 18.6413L13.794 17.2586L11.1316 15.8761V18.0611Z" fill="#34D3B3"/>
</svg>
