<svg width="22" height="22" viewBox="0 0 22 22" fill="none" xmlns="http://www.w3.org/2000/svg">
<path fill-rule="evenodd" clip-rule="evenodd" d="M15.6396 0.615423C13.7671 1.02236 12.2237 2.53597 11.7725 4.40791C11.6243 5.02303 11.6416 6.16939 11.8082 6.784L11.9439 7.28423L11.1957 8.03616C10.7842 8.44968 10.4475 8.82552 10.4475 8.87138C10.4475 8.91715 10.8359 9.34168 11.3105 9.81464L12.1735 10.6747L12.5819 10.6075C13.1622 10.5121 13.5197 10.5614 13.9434 10.7954L14.3128 10.9994L14.658 10.6605L15.0033 10.3217L15.4942 10.4495C16.1203 10.6127 17.2726 10.6136 17.9126 10.4516C20.2807 9.85224 21.9988 7.46623 21.7359 5.14225C21.6758 4.61092 21.5876 4.45252 21.3054 4.36864C21.1475 4.32171 20.9877 4.43684 20.3319 5.07022C19.4098 5.96063 19.044 6.15463 18.2844 6.15605C17.0174 6.15847 16.0867 5.24588 16.0821 3.99672C16.0793 3.23646 16.2832 2.84128 17.1466 1.93394C17.8322 1.21345 17.9508 0.999683 17.7979 0.758905C17.6239 0.484696 16.5651 0.414331 15.6396 0.615423ZM1.29581 2.59616C0.243826 3.65257 0.230404 3.54135 1.64055 5.45006C2.27384 6.30728 2.84519 6.99768 2.973 7.06013C3.2402 7.19077 3.44038 7.1385 3.78545 6.84812L4.04232 6.63193L7.47189 10.0615L10.9014 13.491L10.6161 13.7853C10.4004 14.0079 10.3308 14.1517 10.3308 14.3749C10.3308 14.6524 10.533 14.8728 13.7032 18.0486C15.6131 19.962 17.2157 21.4999 17.3989 21.5952C18.1139 21.9673 19.0808 21.8568 19.7199 21.33C20.164 20.9639 20.4799 20.2683 20.4743 19.6687C20.4655 18.7369 20.4262 18.6877 16.7571 15.0169C13.5523 11.8108 13.3891 11.6612 13.0953 11.6612C12.8687 11.6612 12.7084 11.7309 12.4866 11.9256L12.1855 12.1901L8.75615 8.76074L5.32683 5.33134L5.50549 5.14058C5.76161 4.86721 5.87241 4.52947 5.78312 4.29444C5.74076 4.18298 5.1545 3.68792 4.43191 3.15334C2.16412 1.47548 2.37455 1.51292 1.29581 2.59616ZM4.17588 15.0586C0.560972 18.681 0.49836 18.7595 0.500027 19.6649C0.502362 20.9392 1.58194 21.9363 2.82101 21.8084C3.06179 21.7836 3.38493 21.7001 3.53909 21.6231C3.69333 21.546 5.13499 20.1712 6.74289 18.568L9.66632 15.6531L9.43163 15.1878C9.18084 14.6906 9.13774 14.2738 9.29139 13.833C9.38577 13.5623 9.38519 13.5614 8.47994 12.6534C7.98171 12.1536 7.5536 11.7446 7.52858 11.7446C7.50357 11.7446 5.99488 13.2359 4.17588 15.0586Z" fill="#34D3B3"/>
</svg>
