<svg width="160" height="158" viewBox="0 0 160 158" fill="none" xmlns="http://www.w3.org/2000/svg">
<g clip-path="url(#clip0_225_843)">
<path fill-rule="evenodd" clip-rule="evenodd" d="M84.1999 106.303C100.166 109.307 117.465 109.757 132.565 103.837C138.059 101.684 142.742 98.442 147.567 95.1654C147.906 94.9361 147.993 94.4761 147.761 94.1392C147.526 93.8029 147.061 93.717 146.721 93.9487C141.989 97.1613 137.403 100.353 132.015 102.464C117.129 108.3 100.071 107.807 84.3388 104.826L84.3657 104.583C84.6642 101.944 82.9318 98.777 80.0877 95.7764C76.0116 91.4748 69.7091 87.459 64.6478 85.7393C62.3733 84.967 60.3344 84.6633 58.8235 84.9418C57.6453 85.1584 56.7547 85.7168 56.22 86.6241C55.0818 88.5585 55.9241 90.9803 58.1033 93.409C62.6594 98.4897 72.952 103.826 77.9777 104.994C79.5472 105.358 81.135 105.702 82.7369 106.019C82.6971 106.485 82.6563 106.941 82.5963 107.382C82.4218 108.639 82.0832 109.797 81.0488 110.843C79.4348 112.472 77.1641 113.383 74.6976 113.871C70.8477 114.63 66.5181 114.349 63.2715 113.958C45.1902 111.784 33.38 101.847 25.1774 90.7193C16.8955 79.4797 12.27 67.0216 8.61583 59.9647C8.4286 59.6013 7.97863 59.4596 7.61133 59.6448C7.24403 59.83 7.0989 60.2758 7.288 60.6385C10.9652 67.7412 15.6337 80.2756 23.9725 91.5891C32.3905 103.014 44.5301 113.192 63.0904 115.426C66.4724 115.832 70.9803 116.11 74.9891 115.319C77.7641 114.771 80.2997 113.71 82.1159 111.876C83.7451 110.23 84.007 108.38 84.1999 106.303ZM82.8684 104.539L82.883 104.418C83.1442 102.112 81.4858 99.4106 78.9984 96.7872C75.0817 92.6537 69.0283 88.79 64.1619 87.1374C62.4938 86.5697 60.9738 86.2635 59.7425 86.3212C58.7268 86.3702 57.9256 86.6617 57.5116 87.3677C57.1174 88.0328 57.1162 88.7779 57.3793 89.5622C57.6865 90.4836 58.3394 91.447 59.2189 92.4286C63.5974 97.3103 73.4894 102.435 78.3188 103.556C79.8189 103.903 81.336 104.233 82.8684 104.539Z" fill="#146CC5"/>
<path fill-rule="evenodd" clip-rule="evenodd" d="M148.67 92.4184C148.706 92.7399 148.621 93.1852 148.523 93.6629C148.291 94.8011 147.85 96.0749 147.667 96.6837C147.55 97.0757 147.777 97.4856 148.171 97.602C148.567 97.7179 148.982 97.4952 149.099 97.1032C149.323 96.3572 149.908 94.6585 150.093 93.3451C150.192 92.6405 150.164 92.0271 149.999 91.6321C149.72 90.9589 149.029 90.7015 147.942 91.0729C146.656 91.513 144.457 92.9146 142.194 92.7776C141.783 92.752 141.428 93.0641 141.404 93.4696C141.379 93.8775 141.691 94.2277 142.104 94.2528C144.262 94.3823 146.387 93.3222 147.847 92.6986C148.124 92.5804 148.466 92.4767 148.67 92.4184Z" fill="#146CC5"/>
</g>
<defs>
<clipPath id="clip0_225_843">
<rect width="126.499" height="125.391" fill="white" transform="matrix(0.953692 -0.300785 0.306734 0.951795 0.0749512 38.2905)"/>
</clipPath>
</defs>
</svg>
