<svg width="45" height="45" viewBox="0 0 45 45" fill="none" xmlns="http://www.w3.org/2000/svg">
<path d="M22.8 0.599976C10.5393 0.599976 0.599976 10.5393 0.599976 22.8C0.599976 35.0607 10.5393 45 22.8 45C22.9851 45 23.165 44.9793 23.3473 44.9692C23.4114 44.9657 23.4758 44.9647 23.54 44.9615C23.7713 44.95 24.0028 44.9377 24.2337 44.9229C25.8538 44.819 27.4235 44.5262 28.9281 44.0904C30.3275 43.6851 31.6706 43.1575 32.9442 42.5025C37.4062 40.2075 40.9466 36.4319 43.0035 31.8419C43.0191 31.8071 43.0421 31.7765 43.0575 31.7417C43.4772 30.7922 43.8512 29.8188 44.1367 28.8048C44.3588 28.0158 44.5494 27.2144 44.684 26.3921C44.8317 25.4894 44.9199 24.5674 44.9615 23.6325C44.9738 23.3551 45 23.0804 45 22.8C45 21.8996 44.9269 21.0207 44.8227 20.1483C44.8016 19.9713 44.7632 19.7999 44.7379 19.6242C43.1918 8.8744 33.9776 0.599976 22.8 0.599976Z" fill="#543EBB"/>
<path d="M32.5981 18.7379C32.7758 18.7024 33.0402 18.6436 33.3388 18.5789H35.6516L36.0116 18.0469C36.0193 18.0431 36.0329 18.0418 36.0407 18.0418L36.9359 16.749C36.923 16.749 36.9016 16.7464 36.8919 16.7464L36.9857 16.6062H24.4499L24.9321 18.5783H28.3533L22.5967 23.7745C21.4216 22.1521 18.6681 18.7715 16.7477 15.9734H21.0571V14.4725L21.1062 14.1416C21.0933 14.139 21.0693 14.1351 21.0571 14.1351V14H6.76379V15.9734H11.0027C12.6477 17.2597 18.9402 25.1163 19.2013 25.9004C19.306 26.634 19.4023 30.9654 19.094 31.2924C18.4754 31.9466 15.654 31.7733 14.9734 31.8212L14.7381 33.1631C15.9811 33.1999 20.0261 33.0622 21.2833 33.0622C23.7615 33.0622 28.1019 33.0506 28.714 33.0978L28.7896 31.69C28.1633 31.584 24.7472 31.677 24.2754 31.5697C24.1707 30.8878 24.0556 26.3283 24.1603 25.8571C24.6322 24.4958 31.8114 18.9499 32.5981 18.7379V18.7379Z" fill="#ECECEC"/>
<path d="M34.6788 29.5157L36.5992 29.6683L38.8363 21.0269C38.4627 21.014 35.0679 20.6934 34.6271 20.608L34.6788 29.5157V29.5157Z" fill="#ECECEC"/>
<path d="M36.3799 33.1728L36.6882 31.1076L35.581 31.0533L34.3464 30.9008L34.3581 33.0099L35.3296 33.0946L36.3799 33.1728Z" fill="#ECECEC"/>
</svg>
